# xmcd CD database file
#
# Track frame offsets:
#	150
#	24730
#	40125
#	60024
#	85018
#	103741
#	121346
#	140285
#	161248
#	176635
#	194383
#	206609
#
# Disc length: 3051 seconds
#
# Revision: 0
# Processed by: cddbd v1.5.2PL0 Copyright (c) Steve Scherf et al.
# Submitted via: jetAudio 7
#
DISCID=9d0be90c
DTITLE=THE YANGTZE GORGES - 三峽
DYEAR=1900
DGENRE=Classical
TTITLE0=瞿塘峽
TTITLE1=峽中行
TTITLE2=登白帝城
TTITLE3=巫山云雨
TTITLE4=飛瀑直下
TTITLE5=神女峰
TTITLE6=山澗流水
TTITLE7=寧河奇景
TTITLE8=懸棺
TTITLE9=古棧道
TTITLE10=西陵驚濤
TTITLE11=出峽
EXTD=
EXTT0=
EXTT1=
EXTT2=
EXTT3=
EXTT4=
EXTT5=
EXTT6=
EXTT7=
EXTT8=
EXTT9=
EXTT10=
EXTT11=
PLAYORDER=
